<svg xmlns="http://www.w3.org/2000/svg" width="253" height="195" viewBox="-2 -2 260 200" fill="none">
    <path d="M3.59993 25.8C-5.81825 46.76 4.15993 71.8946 25.9054 83.8073L25.8836 83.8291L26.6981 84.2146C27.6799 84.7309 28.6618 85.2691 29.6945 85.7273C30.189 85.9455 30.6908 86.1127 31.1927 86.3164C47.149 93.7564 61.8327 101.64 76.7199 108.324C93.2581 115.749 104.327 82.1636 104.327 82.1636C104.327 82.1636 93.8618 81.7345 90.6763 67.6691C91.069 66.9273 91.4836 66.2145 91.8327 65.4364C101.782 43.2909 90.1017 16.4691 65.7308 5.50908C41.3672 -5.43637 13.549 3.65454 3.59993 25.8ZM58.5308 21.5527C74.0363 28.5273 81.7599 44.9418 75.789 58.2364C69.8254 71.5164 52.4145 76.6436 36.909 69.6691C21.4036 62.7164 13.6727 46.2945 19.6436 33.0073C25.6072 19.72 43.0181 14.5927 58.5308 21.5527Z" fill="#F50187" stroke="black" stroke-width="3"/>
    <path d="M252.676 182.295C247.898 190.753 234.684 198.2 226.218 193.415L75.8835 107.938C79.4908 99.9164 92.7054 86.5709 104.334 82.1636L252.676 182.295Z" fill="#EBEBEB" stroke="black" stroke-width="3"/>
    <path d="M125.607 105.64C128.622 105.642 131.513 106.841 133.643 108.975C135.773 111.108 136.969 114 136.967 117.015C136.965 120.029 135.766 122.92 133.633 125.05C131.5 127.181 128.607 128.376 125.593 128.375C124.1 128.374 122.622 128.079 121.243 127.506C119.864 126.934 118.612 126.096 117.557 125.04C116.502 123.984 115.666 122.73 115.095 121.351C114.525 119.971 114.232 118.493 114.233 117C114.234 115.507 114.529 114.029 115.101 112.65C115.673 111.272 116.511 110.019 117.567 108.964C118.623 107.909 119.877 107.073 121.257 106.502C122.636 105.932 124.114 105.639 125.607 105.64Z" fill="#D9D9D9" stroke="black" stroke-width="3"/>
</svg>