<svg xmlns="http://www.w3.org/2000/svg" width="253" height="195" viewBox="-2 -2 260 200" fill="none">
  <path d="M76.7273 86.6836C61.84 93.3746 47.1563 101.251 31.2 108.691C30.7054 108.895 30.1963 109.062 29.7018 109.287C28.6691 109.753 27.6873 110.284 26.6982 110.8L25.8909 111.178L25.9127 111.193C4.16725 123.105 -5.81093 148.233 3.60725 169.2C13.5491 191.353 41.3673 200.444 65.7309 189.491C90.1018 178.545 101.782 151.716 91.8327 129.564C91.4909 128.793 91.0691 128.073 90.6764 127.338C93.8618 113.265 104.327 112.836 104.327 112.836C104.327 112.836 93.2654 79.2509 76.7273 86.6836ZM58.5309 173.447C43.0182 180.415 25.6073 175.28 19.6436 161.993C13.6654 148.713 21.4036 132.291 36.9091 125.324C52.4145 118.356 69.8254 123.484 75.7891 136.764C81.76 150.058 74.0364 166.487 58.5309 173.447Z" fill="#F50187" stroke="black" stroke-width="3"/>
  <path d="M252.676 12.7054C247.898 4.24727 234.684 -3.2 226.218 1.58545L75.8835 87.0618C79.4908 95.0836 92.7054 108.429 104.334 112.836L252.676 12.7054Z" fill="#D9D9D9" stroke="black" stroke-width="3"/>
</svg>